<?xml version="1.0" encoding="utf-8"?>
<svg xmlns="http://www.w3.org/2000/svg" width="164" height="164" class="segno"><g transform="scale(4)"><path class="qrline" stroke="#000" d="M4 4.5h7m19 0h7m-33 1h1m5 0h1m1 0h1m17 0h1m5 0h1m-33 1h1m1 0h3m1 0h1m19 0h1m1 0h3m1 0h1m-33 1h1m1 0h3m1 0h1m1 0h1m17 0h1m1 0h3m1 0h1m-33 1h1m1 0h3m1 0h1m19 0h1m1 0h3m1 0h1m-33 1h1m5 0h1m1 0h1m17 0h1m5 0h1m-33 1h7m1 0h1m1 0h1m1 0h1m1 0h1m1 0h1m1 0h1m1 0h1m1 0h1m1 0h1m1 0h7m-33 2h5m1 0h3m16 0h1m1 0h1m1 0h1m1 0h1m-26 2h1m-1 2h1m-1 2h1m-1 2h1m-1 2h1m-1 2h1m-1 2h1m-1 2h1m17 0h5m-21 1h1m15 0h1m3 0h1m-29 1h7m1 0h1m15 0h1m1 0h1m1 0h1m-29 1h1m5 0h1m17 0h1m3 0h1m-29 1h1m1 0h3m1 0h1m1 0h1m15 0h5m-29 1h1m1 0h3m1 0h1m1 0h1m-9 1h1m1 0h3m1 0h1m1 0h1m-9 1h1m5 0h1m1 0h1m-9 1h7m1 0h1"/><path class="qrline" stroke="#fff" d="M13 4.5h1m1 0h1m2 0h2m3 0h1m-11 1h1m1 0h2m4 0h1m1 0h1m1 0h4m-16 1h3m1 0h2m2 0h4m-10 1h1m5 0h6m-13 1h3m1 0h2m3 0h1m1 0h1m-12 1h1m2 0h2m1 0h4m2 0h2m-12 2h2m2 0h2m1 0h1m-10 1h1m1 0h1m3 0h1m3 0h3m-21 1h2m5 0h1m1 0h1m1 0h2m3 0h2m5 0h1m2 0h2m2 0h1m-32 1h2m1 0h2m3 0h1m1 0h2m1 0h1m1 0h1m2 0h1m1 0h3m1 0h2m1 0h3m1 0h1m-31 1h4m3 0h3m1 0h5m1 0h1m3 0h5m4 0h1m-33 1h2m1 0h1m1 0h1m1 0h2m2 0h1m6 0h5m3 0h1m2 0h1m1 0h2m-33 1h2m8 0h3m2 0h1m3 0h1m3 0h4m1 0h1m2 0h2m-33 1h2m1 0h3m3 0h1m4 0h1m2 0h3m3 0h2m4 0h1m2 0h1m-33 1h2m1 0h2m3 0h3m1 0h3m2 0h2m1 0h1m1 0h3m1 0h1m1 0h2m-28 1h1m2 0h1m4 0h1m1 0h1m1 0h1m1 0h1m1 0h1m2 0h3m2 0h2m2 0h3m-33 1h2m2 0h2m1 0h1m3 0h1m2 0h2m1 0h1m2 0h2m1 0h3m1 0h6m-32 1h2m5 0h5m3 0h2m1 0h2m1 0h2m1 0h6m1 0h1m-33 1h1m1 0h2m1 0h1m3 0h1m1 0h1m1 0h3m1 0h4m1 0h3m1 0h3m3 0h1m-31 1h3m2 0h5m6 0h2m1 0h4m1 0h1m2 0h1m2 0h1m-31 1h1m1 0h1m2 0h1m1 0h1m1 0h2m1 0h2m1 0h2m1 0h2m1 0h2m2 0h2m1 0h3m-32 1h1m1 0h1m1 0h1m3 0h2m2 0h2m2 0h4m1 0h3m1 0h1m2 0h2m1 0h1m-32 1h1m1 0h1m4 0h1m3 0h2m2 0h3m7 0h4m2 0h1m-32 1h2m1 0h2m3 0h2m5 0h1m1 0h2m1 0h2m7 0h1m-22 1h3m1 0h1m1 0h1m1 0h2m1 0h1m8 0h4m-24 1h1m1 0h1m1 0h1m5 0h4m6 0h2m1 0h1m-24 1h3m1 0h2m2 0h1m2 0h1m1 0h2m7 0h2m-23 1h2m2 0h3m1 0h2m1 0h3m5 0h1m2 0h1m-24 1h3m3 0h1m4 0h1m3 0h1m1 0h2m2 0h3m-22 1h2m1 0h1m1 0h1m1 0h3m1 0h1m1 0h1m2 0h2m3 0h1m-20 1h1m1 0h1m1 0h3m3 0h6m2 0h2m-24 1h1m2 0h1m1 0h3m2 0h1m1 0h2m2 0h1m2 0h3m1 0h1"/><path class="qrline" stroke="#198259" d="M0 0.5h41m-41 1h41m-41 1h41m-41 1h41m-41 1h4m10 0h1m1 0h2m2 0h3m1 0h5m8 0h4m-41 1h4m10 0h1m2 0h4m1 0h1m1 0h1m12 0h4m-41 1h4m12 0h1m2 0h2m4 0h4m8 0h4m-41 1h4m9 0h2m1 0h5m6 0h2m8 0h4m-41 1h4m9 0h1m3 0h1m2 0h3m1 0h1m1 0h3m8 0h4m-41 1h4m9 0h1m1 0h2m2 0h1m4 0h2m2 0h1m8 0h4m-41 1h4m33 0h4m-41 1h4m9 0h3m2 0h2m2 0h1m1 0h5m8 0h4m-41 1h4m9 0h1m1 0h1m1 0h3m1 0h3m3 0h1m9 0h4m-41 1h6m2 0h2m1 0h2m1 0h1m1 0h1m2 0h3m2 0h5m1 0h2m2 0h2m1 0h4m-41 1h5m2 0h1m3 0h2m1 0h1m2 0h1m1 0h1m1 0h2m1 0h1m3 0h1m2 0h1m3 0h1m1 0h4m-41 1h6m5 0h2m3 0h1m5 0h1m1 0h3m5 0h4m1 0h4m-41 1h4m2 0h1m1 0h1m4 0h2m1 0h6m5 0h3m1 0h2m1 0h1m2 0h4m-41 1h4m2 0h4m1 0h3m3 0h2m1 0h3m1 0h3m4 0h1m1 0h2m2 0h4m-41 1h4m2 0h1m4 0h2m1 0h4m1 0h2m3 0h3m2 0h4m1 0h2m1 0h4m-41 1h4m2 0h1m2 0h1m1 0h1m3 0h1m3 0h2m2 0h1m1 0h1m3 0h1m1 0h1m2 0h7m-41 1h6m1 0h2m2 0h3m1 0h1m1 0h1m1 0h1m1 0h1m1 0h2m3 0h2m2 0h2m3 0h4m-41 1h4m2 0h2m4 0h3m1 0h2m2 0h1m1 0h2m2 0h1m3 0h1m6 0h4m-41 1h5m2 0h3m1 0h1m5 0h3m2 0h1m2 0h1m2 0h1m6 0h1m1 0h4m-41 1h4m1 0h1m2 0h1m2 0h2m1 0h1m1 0h1m3 0h1m4 0h1m3 0h1m3 0h3m1 0h4m-41 1h6m3 0h1m6 0h6m2 0h1m4 0h1m1 0h2m1 0h2m1 0h4m-41 1h6m1 0h1m1 0h1m2 0h1m1 0h1m2 0h1m2 0h1m2 0h1m2 0h1m2 0h2m2 0h1m3 0h4m-41 1h5m1 0h1m1 0h1m2 0h2m2 0h2m2 0h2m4 0h1m3 0h1m1 0h2m2 0h1m1 0h4m-41 1h5m1 0h1m1 0h2m1 0h1m1 0h3m2 0h2m3 0h7m4 0h2m1 0h4m-41 1h5m2 0h1m3 0h2m2 0h5m1 0h1m2 0h1m2 0h1m5 0h1m1 0h6m-41 1h4m12 0h1m1 0h1m1 0h1m2 0h1m1 0h3m9 0h4m-41 1h4m10 0h1m1 0h1m1 0h5m4 0h1m7 0h1m1 0h4m-41 1h4m12 0h1m2 0h2m1 0h2m1 0h1m7 0h2m2 0h4m-41 1h4m9 0h1m2 0h2m3 0h1m2 0h1m9 0h2m1 0h4m-41 1h4m12 0h3m1 0h4m1 0h3m1 0h1m2 0h2m3 0h4m-41 1h4m9 0h2m2 0h1m1 0h1m1 0h1m3 0h1m1 0h1m1 0h2m2 0h3m1 0h4m-41 1h4m9 0h4m1 0h1m1 0h1m3 0h3m6 0h2m2 0h4m-41 1h4m10 0h2m1 0h1m3 0h2m1 0h1m2 0h2m1 0h2m3 0h1m1 0h4m-41 1h41m-41 1h41m-41 1h41m-41 1h41"/></g></svg>
