<?xml version="1.0" encoding="utf-8"?>
<svg xmlns="http://www.w3.org/2000/svg" width="132" height="132" class="segno"><g transform="scale(4)"><path class="qrline" stroke="#000" d="M4 4.5h7m1 0h1m9 0h7m-25 1h1m5 0h1m1 0h1m9 0h1m5 0h1m-25 1h1m1 0h3m1 0h1m11 0h1m1 0h3m1 0h1m-25 1h1m1 0h3m1 0h1m11 0h1m1 0h3m1 0h1m-25 1h1m1 0h3m1 0h1m1 0h1m9 0h1m1 0h3m1 0h1m-25 1h1m5 0h1m1 0h1m9 0h1m5 0h1m-25 1h7m1 0h1m1 0h1m1 0h1m1 0h1m1 0h1m1 0h7m-17 1h1m-9 1h3m2 0h2m1 0h1m8 0h4m2 0h2m-19 2h1m-1 2h1m-1 2h1m-1 2h1m9 0h5m-13 1h1m7 0h1m3 0h1m-21 1h7m9 0h1m1 0h1m1 0h1m-21 1h1m5 0h1m1 0h1m7 0h1m3 0h1m-21 1h1m1 0h3m1 0h1m9 0h5m-21 1h1m1 0h3m1 0h1m-7 1h1m1 0h3m1 0h1m1 0h1m-9 1h1m5 0h1m1 0h1m-9 1h7m1 0h1"/><path class="qrline" stroke="#fff" d="M13 4.5h1m3 0h1m1 0h2m-6 1h3m1 0h1m-7 1h1m4 0h1m1 0h1m-8 1h1m1 0h2m1 0h2m-3 1h1m1 0h2m-8 1h3m3 0h1m-7 2h1m3 0h4m-6 1h1m1 0h2m-14 1h1m6 0h1m4 0h2m1 0h1m3 0h1m1 0h1m-23 1h2m6 0h3m1 0h3m2 0h1m1 0h2m2 0h1m-23 1h3m1 0h1m1 0h1m2 0h4m3 0h4m1 0h3m-25 1h2m2 0h1m2 0h2m1 0h2m1 0h3m1 0h1m1 0h5m-24 1h4m1 0h1m1 0h1m1 0h2m3 0h1m5 0h3m-20 1h1m1 0h1m2 0h1m7 0h1m2 0h2m2 0h1m-24 1h2m1 0h3m2 0h1m1 0h1m2 0h1m3 0h1m4 0h3m-21 1h1m2 0h2m1 0h2m1 0h3m5 0h2m1 0h1m-13 1h2m1 0h1m5 0h3m-15 1h1m4 0h2m5 0h3m-12 1h3m6 0h4m-12 1h2m6 0h4m-15 1h1m3 0h1m1 0h1m1 0h2m1 0h1m2 0h1m-16 1h2m1 0h1m2 0h2m1 0h1m3 0h1m-14 1h3m1 0h3m1 0h2m2 0h4m-16 1h1m2 0h4m1 0h1m1 0h2m1 0h2"/><path class="qrline" stroke="#198259" d="M0 0.5h33m-33 1h33m-33 1h33m-33 1h33m-33 1h4m10 0h3m1 0h1m10 0h4m-33 1h4m9 0h2m3 0h1m1 0h1m8 0h4m-33 1h4m10 0h4m1 0h1m9 0h4m-33 1h4m10 0h1m2 0h1m2 0h1m8 0h4m-33 1h4m9 0h4m1 0h1m10 0h4m-33 1h4m12 0h3m1 0h1m8 0h4m-33 1h4m25 0h4m-33 1h4m10 0h3m12 0h4m-33 1h4m9 0h2m1 0h1m2 0h1m9 0h4m-33 1h5m1 0h4m1 0h1m1 0h4m2 0h1m1 0h3m1 0h1m1 0h6m-33 1h4m2 0h4m1 0h1m3 0h1m3 0h2m1 0h1m2 0h2m1 0h5m-33 1h5m3 0h1m3 0h2m4 0h3m4 0h1m3 0h4m-33 1h4m2 0h2m1 0h1m3 0h1m2 0h1m3 0h1m1 0h1m5 0h5m-33 1h4m4 0h1m3 0h1m2 0h3m1 0h5m3 0h6m-33 1h7m1 0h1m2 0h1m1 0h7m1 0h2m2 0h2m1 0h5m-33 1h4m2 0h1m4 0h1m1 0h1m1 0h2m1 0h3m1 0h4m3 0h4m-33 1h8m1 0h1m3 0h1m2 0h1m10 0h1m1 0h4m-33 1h4m9 0h3m2 0h1m9 0h5m-33 1h4m10 0h4m10 0h5m-33 1h4m9 0h3m3 0h1m9 0h4m-33 1h4m9 0h4m2 0h1m9 0h4m-33 1h4m9 0h1m1 0h3m1 0h1m1 0h1m2 0h1m1 0h2m1 0h4m-33 1h4m11 0h1m1 0h2m2 0h1m1 0h3m1 0h6m-33 1h4m12 0h1m3 0h1m2 0h2m4 0h4m-33 1h4m10 0h2m4 0h1m1 0h1m2 0h1m2 0h5m-33 1h33m-33 1h33m-33 1h33m-33 1h33"/></g></svg>
